<?xml version="1.0" encoding="UTF-8"?>
<!DOCTYPE svg PUBLIC "-//W3C//DTD SVG 1.1//EN" "http://www.w3.org/Graphics/SVG/1.1/DTD/svg11.dtd">
<!-- Creator: CorelDRAW -->
<svg xmlns="http://www.w3.org/2000/svg" xml:space="preserve" width="289.944mm" height="222.107mm" version="1.1" style="shape-rendering:geometricPrecision; text-rendering:geometricPrecision; image-rendering:optimizeQuality; fill-rule:evenodd; clip-rule:evenodd"
viewBox="0 0 28994.36 22210.7"
 xmlns:xlink="http://www.w3.org/1999/xlink"
 xmlns:xodm="http://www.corel.com/coreldraw/odm/2003">
 <defs>
  <style type="text/css">
   <![CDATA[
    .fil0 {fill:#090806}
    .fil2 {fill:#515151}
    .fil1 {fill:#7F7F7F}
   ]]>
  </style>
 </defs>
 <g id="Camada_x0020_1">
  <metadata id="CorelCorpID_0Corel-Layer"/>
  <g id="_2390908993680">
   <path class="fil0" d="M1891.77 21609.85c-28.1,-40.14 -32.22,63.38 -55.23,-118.83 194.33,-6.54 67.16,5.18 113.85,59.86 172.68,387.28 106.68,211.45 46.8,588.49 1151.21,148.68 695.5,-666.26 519.48,-859.45 -193.56,-212.43 -359.5,-136.43 -302.55,-607.61 32.42,-268.23 110.41,-492.47 183.59,-737.52 666.28,-2231.08 1340.56,-3031.77 3253.16,-4083.68 818.93,-450.4 1637.42,-836.66 2202.28,-1431.41 435.78,-458.84 421.1,-370.44 847.97,-985.12 827.68,-1191.84 908.52,-2945.57 2899.79,-1872.5 974.62,525.21 2651.63,1858.58 3990.94,965.81 303.53,-202.33 728.34,-735.68 778.5,-1004.42l86.87 -75.11 -31.7 73.01c-131.89,1410.91 -1013.03,1177.36 -949.89,1913.11 25.6,298.26 98.9,513.52 91.36,847.72 -40.44,1790.97 -352.45,3323.99 -710.74,4988.29 -91.43,424.76 25.74,478.91 160.7,763.51 318.94,672.56 54.7,1692.59 735.26,2050.08 364.8,191.63 1314.49,163.28 1670.86,4.69 106.47,-430.58 -190.14,-762.19 -488.94,-865.51 -339.99,-117.56 -599.39,133.82 -719.74,-648.42 -135.75,-882.29 123.44,-1626.46 324.5,-2373.81 271.93,-1010.74 788.44,-3271.02 1385.85,-4152.47 111.94,-165.14 169.56,-257.11 309.71,-394.97 464.32,-456.72 486.32,-494.14 1221.78,-858.59 1299.43,-643.92 1473.53,-989.23 2190.32,-1939.5 649.68,-861.3 1208.14,-973.19 1487.2,-1263.93 350.95,-365.63 382.89,-715.38 492.02,-879.95 95.49,181.59 71.02,417.59 14.59,621.64 529.29,-287.03 731.54,-1214.57 1146.07,-1580.35 1084.51,-956.98 2259.44,374.98 3306.11,-149.88 1520.49,-762.46 724.21,-1067.87 405.86,-1333.51 -250.07,-208.68 -493.2,-404.1 -721.95,-617.31 -675.11,-629.25 -198.93,-815.96 -551.95,-1528.42 -297.47,-600.37 -417.24,-347.18 -145.38,-886.82 207.91,-412.73 414.5,-1028.03 522.42,-1497.02 74.18,-322.38 213.71,-861.12 82.94,-1216.62 -173.01,-470.29 -558.32,-96.87 -780.58,68.76 -282.71,210.68 -510.2,374.04 -781.73,593.08 -130.51,105.3 -225.97,213.72 -344.89,325.61 -134.05,126.12 -244.69,281.59 -327.98,294.56 -84.97,-645.3 -226.7,-1964.91 -1007.88,-1780.8 -464.4,109.46 -1053.11,1036.49 -1299.5,1496.93 -400.84,749.08 -339.68,1421.02 -1456.43,1335.76 -498.91,-38.09 -843.39,-15.81 -1295.15,107.18 -198.71,54.1 -348.85,102.31 -528.1,179.62 -153.67,66.28 -316.65,174.8 -414.29,218.21 163.5,36.9 251.65,38.38 396,98.16 144.05,59.65 218.63,94.28 243.03,185.57 -758.46,26.92 -2070.25,120.32 -2479.67,575.32 215.4,36.38 729.28,67.9 779.45,267.77 -855.44,27.52 -1141.33,225.13 -1738.3,593.46 -498.59,307.64 -1202.69,401.52 -1910.82,368.74 -2030.75,-94 -4023.64,-921.84 -6133.88,-161.33 -903.96,325.78 -873.1,431.9 -1539.7,754.72 -523.21,253.37 -1048.17,476.54 -1553.98,774.2 -954.42,561.65 -1695.16,1431 -2191.53,2431.38 -254.93,513.79 -418.61,1120.15 -578.95,1716.74 -476.75,1773.8 -1068.23,2699 -2741.63,2631.18 583.6,479.34 1850.73,627.61 2528.64,168.48 1360.75,-542.75 1939.53,-2615.87 2303.9,-4314.96 127,-592.23 574.32,-1592.82 1046.68,-1840.82 -66.31,143.05 -157.71,286.88 -231.03,438.91 -66.39,137.63 -120.52,292.1 -180.68,457.2 -1020.44,2800.35 613.31,4759.73 -2017.61,7082.32 -719,634.73 -1132.47,397.63 -1338.81,1274.85 -170.54,725 -321.37,1369.92 -515.7,2056.21 -192.23,678.91 -435.04,1346.79 -571.46,2036.97 -262.22,1326.71 982.67,1435.81 869.87,652.54zm26356.28 -15176.23c123.22,18.09 311.88,125.17 402.14,228.13 90.26,102.95 82.14,201.8 45.58,274.24 -36.56,72.44 -101.56,118.48 -175.7,159.33 -74.14,40.84 -157.42,76.48 -230.71,55.76 -73.28,-20.72 -136.57,-97.82 -182.54,-169.75 -45.97,-71.93 -74.63,-138.7 -88,-208.51 -13.37,-69.82 -11.45,-142.69 18.4,-214.56 29.85,-71.87 87.62,-142.74 210.83,-124.64zm-1730.42 -3044.38c333.42,-402.92 851.99,-1713.46 762.34,-2389.05 -356.74,-54.29 -1607.24,1986.65 -762.34,2389.05zm-1256.42 1567.1c91.93,51.44 234.17,88.01 310.85,148.93 89.85,71.38 93.58,163.73 232.62,224.69 347.23,152.25 273.08,-194.07 659.02,120.33l67.23 51.74c-30.09,-160.57 -102.8,-280.87 -154.04,-424.2 -91.21,-255.14 -202.47,-619.47 -719.19,-298.29 -165.52,102.88 -283.96,110.89 -396.49,176.8zm-1260.05 -1179.21c474.4,42.37 520.26,-479.22 392.65,-741.29 -202.56,-415.97 -260.41,-97.36 -346.91,-844.97 -382.92,309.59 -273.15,1227.71 -45.74,1586.26z"/>
   <path class="fil0" d="M12141.8 13047.48c16.39,-149.23 21.58,-362.48 4.69,-517.87 -35.89,-330.07 -652.36,-593 -938.46,-717.71 -1141.43,-497.55 -1384.51,433.71 -1805.42,1193.2 -745.81,1345.73 -671.19,724.04 -397.77,1398.73 361.02,890.81 47.48,1847.94 -361.71,2641.43 -315.67,612.16 -629.86,863.15 -158.33,1546.98l1347.76 1932.94c549.52,801.01 854.57,1540.6 1696.09,1617.34 563.58,51.4 1805,175.54 1090.35,-663.41 -553.47,-649.75 -867.95,100.7 -1457.4,-729.6 -292.09,-411.45 -585.64,-896.73 -829.5,-1356.82 -1280.72,-2416.27 1551.62,-3995.04 1809.7,-6345.21z"/>
   <path class="fil0" d="M25484.06 21459.96c96.66,50.88 389.88,417.79 809.59,329.27 345.98,-72.97 405.36,-403.09 285,-756.1 -137.26,-402.58 -593.13,-842.51 -893.06,-1367.01 -285.13,-498.62 -457.42,-1007.08 -686.67,-1605.77 -415.13,-1084.16 -1037.34,-1476.56 -1726.99,-2259.93 -90.29,-102.57 -190.16,-178.74 -282.65,-281.43 -355.27,-394.44 -677.47,-781.02 -1017.86,-1240.79 -964.69,-1303.05 252.69,-2071.1 249.43,-3525.84 -512.93,323.72 -755.87,1594.9 -3014.58,2562.75 160.67,993.04 -213.51,1037.77 272.16,1515.3 105.28,103.51 407.36,287.89 557.82,395.44 833.74,595.97 1862.84,1413.74 2677.56,2050.3 1025.35,801.13 882.25,1033.47 1350.88,1506.17 556.22,561.07 542.21,2373.49 1396.59,2381.26 380.08,3.45 280.78,-335.4 298.02,-462.35 13.66,-100.54 -19.53,-6.17 26.67,-76.61 75.88,136.98 191.19,318.81 109.57,548.17 -78.37,220.23 -200.39,197.4 -324.77,243.87l-86.71 43.3z"/>
   <path class="fil1" d="M1891.77 21609.85c2.97,-85.45 -20.83,-70.71 58.62,-58.97 -46.69,-54.68 80.48,-66.4 -113.85,-59.86 23.01,182.21 27.13,78.69 55.23,118.83z"/>
   <polygon class="fil2" points="16370.35,11523.47 16425.52,11521.37 16457.22,11448.36 "/>
   <path class="fil0" d="M1891.77 21609.85c-28.1,-40.14 -32.22,63.38 -55.23,-118.83 194.33,-6.54 67.16,5.18 113.85,59.86 172.68,387.28 106.68,211.45 46.8,588.49 1151.21,148.68 695.5,-666.26 519.48,-859.45 -193.56,-212.43 -359.5,-136.43 -302.55,-607.61 32.42,-268.23 110.41,-492.47 183.59,-737.52 666.28,-2231.08 1340.56,-3031.77 3253.16,-4083.68 818.93,-450.4 1637.42,-836.66 2202.28,-1431.41 435.78,-458.84 421.1,-370.44 847.97,-985.12 827.68,-1191.84 908.52,-2945.57 2899.79,-1872.5 974.62,525.21 2651.63,1858.58 3990.94,965.81 303.53,-202.33 728.34,-735.68 778.5,-1004.42l86.87 -75.11 -31.7 73.01c-131.89,1410.91 -1013.03,1177.36 -949.89,1913.11 25.6,298.26 98.9,513.52 91.36,847.72 -40.44,1790.97 -352.45,3323.99 -710.74,4988.29 -91.43,424.76 25.74,478.91 160.7,763.51 318.94,672.56 54.7,1692.59 735.26,2050.08 364.8,191.63 1314.49,163.28 1670.86,4.69 106.47,-430.58 -190.14,-762.19 -488.94,-865.51 -339.99,-117.56 -599.39,133.82 -719.74,-648.42 -135.75,-882.29 123.44,-1626.46 324.5,-2373.81 271.93,-1010.74 788.44,-3271.02 1385.85,-4152.47 111.94,-165.14 169.56,-257.11 309.71,-394.97 464.32,-456.72 486.32,-494.14 1221.78,-858.59 1299.43,-643.92 1473.53,-989.23 2190.32,-1939.5 649.68,-861.3 1208.14,-973.19 1487.2,-1263.93 350.95,-365.63 382.89,-715.38 492.02,-879.95 95.49,181.59 71.02,417.59 14.59,621.64 529.29,-287.03 731.54,-1214.57 1146.07,-1580.35 1084.51,-956.98 2259.44,374.98 3306.11,-149.88 1520.49,-762.46 724.21,-1067.87 405.86,-1333.51 -250.07,-208.68 -493.2,-404.1 -721.95,-617.31 -675.11,-629.25 -198.93,-815.96 -551.95,-1528.42 -297.47,-600.37 -417.24,-347.18 -145.38,-886.82 207.91,-412.73 414.5,-1028.03 522.42,-1497.02 74.18,-322.38 213.71,-861.12 82.94,-1216.62 -173.01,-470.29 -558.32,-96.87 -780.58,68.76 -282.71,210.68 -510.2,374.04 -781.73,593.08 -130.51,105.3 -225.97,213.72 -344.89,325.61 -134.05,126.12 -244.69,281.59 -327.98,294.56 -84.97,-645.3 -226.7,-1964.91 -1007.88,-1780.8 -464.4,109.46 -1053.11,1036.49 -1299.5,1496.93 -400.84,749.08 -339.68,1421.02 -1456.43,1335.76 -498.91,-38.09 -843.39,-15.81 -1295.15,107.18 -198.71,54.1 -348.85,102.31 -528.1,179.62 -153.67,66.28 -316.65,174.8 -414.29,218.21 163.5,36.9 251.65,38.38 396,98.16 144.05,59.65 218.63,94.28 243.03,185.57 -758.46,26.92 -2070.25,120.32 -2479.67,575.32 215.4,36.38 729.28,67.9 779.45,267.77 -855.44,27.52 -1141.33,225.13 -1738.3,593.46 -498.59,307.64 -1202.69,401.52 -1910.82,368.74 -2030.75,-94 -4023.64,-921.84 -6133.88,-161.33 -903.96,325.78 -873.1,431.9 -1539.7,754.72 -523.21,253.37 -1048.17,476.54 -1553.98,774.2 -954.42,561.65 -1695.16,1431 -2191.53,2431.38 -254.93,513.79 -418.61,1120.15 -578.95,1716.74 -476.75,1773.8 -1068.23,2699 -2741.63,2631.18 583.6,479.34 1850.73,627.61 2528.64,168.48 1360.75,-542.75 1939.53,-2615.87 2303.9,-4314.96 127,-592.23 574.32,-1592.82 1046.68,-1840.82 -66.31,143.05 -157.71,286.88 -231.03,438.91 -66.39,137.63 -120.52,292.1 -180.68,457.2 -1020.44,2800.35 613.31,4759.73 -2017.61,7082.32 -719,634.73 -1132.47,397.63 -1338.81,1274.85 -170.54,725 -321.37,1369.92 -515.7,2056.21 -192.23,678.91 -435.04,1346.79 -571.46,2036.97 -262.22,1326.71 982.67,1435.81 869.87,652.54zm26356.28 -15176.23c123.22,18.09 311.88,125.17 402.14,228.13 90.26,102.95 82.14,201.8 45.58,274.24 -36.56,72.44 -101.56,118.48 -175.7,159.33 -74.14,40.84 -157.42,76.48 -230.71,55.76 -73.28,-20.72 -136.57,-97.82 -182.54,-169.75 -45.97,-71.93 -74.63,-138.7 -88,-208.51 -13.37,-69.82 -11.45,-142.69 18.4,-214.56 29.85,-71.87 87.62,-142.74 210.83,-124.64zm-1730.42 -3044.38c333.42,-402.92 851.99,-1713.46 762.34,-2389.05 -356.74,-54.29 -1607.24,1986.65 -762.34,2389.05zm-1256.42 1567.1c91.93,51.44 234.17,88.01 310.85,148.93 89.85,71.38 93.58,163.73 232.62,224.69 347.23,152.25 273.08,-194.07 659.02,120.33l67.23 51.74c-30.09,-160.57 -102.8,-280.87 -154.04,-424.2 -91.21,-255.14 -202.47,-619.47 -719.19,-298.29 -165.52,102.88 -283.96,110.89 -396.49,176.8zm-1260.05 -1179.21c474.4,42.37 520.26,-479.22 392.65,-741.29 -202.56,-415.97 -260.41,-97.36 -346.91,-844.97 -382.92,309.59 -273.15,1227.71 -45.74,1586.26z"/>
   <path class="fil0" d="M12141.8 13047.48c16.39,-149.23 21.58,-362.48 4.69,-517.87 -35.89,-330.07 -652.36,-593 -938.46,-717.71 -1141.43,-497.55 -1384.51,433.71 -1805.42,1193.2 -745.81,1345.73 -671.19,724.04 -397.77,1398.73 361.02,890.81 47.48,1847.94 -361.71,2641.43 -315.67,612.16 -629.86,863.15 -158.33,1546.98l1347.76 1932.94c549.52,801.01 854.57,1540.6 1696.09,1617.34 563.58,51.4 1805,175.54 1090.35,-663.41 -553.47,-649.75 -867.95,100.7 -1457.4,-729.6 -292.09,-411.45 -585.64,-896.73 -829.5,-1356.82 -1280.72,-2416.27 1551.62,-3995.04 1809.7,-6345.21z"/>
   <path class="fil0" d="M25484.06 21459.96c96.66,50.88 389.88,417.79 809.59,329.27 345.98,-72.97 405.36,-403.09 285,-756.1 -137.26,-402.58 -593.13,-842.51 -893.06,-1367.01 -285.13,-498.62 -457.42,-1007.08 -686.67,-1605.77 -415.13,-1084.16 -1037.34,-1476.56 -1726.99,-2259.93 -90.29,-102.57 -190.16,-178.74 -282.65,-281.43 -355.27,-394.44 -677.47,-781.02 -1017.86,-1240.79 -964.69,-1303.05 252.69,-2071.1 249.43,-3525.84 -512.93,323.72 -755.87,1594.9 -3014.58,2562.75 160.67,993.04 -213.51,1037.77 272.16,1515.3 105.28,103.51 407.36,287.89 557.82,395.44 833.74,595.97 1862.84,1413.74 2677.56,2050.3 1025.35,801.13 882.25,1033.47 1350.88,1506.17 556.22,561.07 542.21,2373.49 1396.59,2381.26 380.08,3.45 280.78,-335.4 298.02,-462.35 13.66,-100.54 -19.53,-6.17 26.67,-76.61 75.88,136.98 191.19,318.81 109.57,548.17 -78.37,220.23 -200.39,197.4 -324.77,243.87l-86.71 43.3z"/>
   <path class="fil1" d="M1891.77 21609.85c2.97,-85.45 -20.83,-70.71 58.62,-58.97 -46.69,-54.68 80.48,-66.4 -113.85,-59.86 23.01,182.21 27.13,78.69 55.23,118.83z"/>
   <polygon class="fil2" points="16370.35,11523.47 16425.52,11521.37 16457.22,11448.36 "/>
  </g>
 </g>
</svg>
